<svg t="1698931033352" class="icon" viewBox="0 0 1024 1024" version="1.1" xmlns="http://www.w3.org/2000/svg" p-id="19764" width="128" height="128"><path d="M0 0m256 0l512 0q256 0 256 256l0 512q0 256-256 256l-512 0q-256 0-256-256l0-512q0-256 256-256Z" fill="#6A30F5" p-id="19765"></path><path d="M553.1904 0H768a256 256 0 0 1 256 256v209.0368z" fill="#3800BE" p-id="19766"></path><path d="M204.8 230.4m25.6 0l128 0q25.6 0 25.6 25.6l0 128q0 25.6-25.6 25.6l-128 0q-25.6 0-25.6-25.6l0-128q0-25.6 25.6-25.6Z" fill="#FFFFFF" p-id="19767"></path><path d="M358.4 384m25.6 0l128 0q25.6 0 25.6 25.6l0 128q0 25.6-25.6 25.6l-128 0q-25.6 0-25.6-25.6l0-128q0-25.6 25.6-25.6Z" fill="#FFFFFF" p-id="19768"></path><path d="M204.8 537.6m25.6 0l128 0q25.6 0 25.6 25.6l0 128q0 25.6-25.6 25.6l-128 0q-25.6 0-25.6-25.6l0-128q0-25.6 25.6-25.6Z" fill="#FFFFFF" p-id="19769"></path><path d="M358.4 691.2m25.6 0l128 0q25.6 0 25.6 25.6l0 128q0 25.6-25.6 25.6l-128 0q-25.6 0-25.6-25.6l0-128q0-25.6 25.6-25.6Z" fill="#FFFFFF" p-id="19770"></path></svg>