<svg t="1698844177932" class="icon" viewBox="0 0 1025 1024" version="1.1" xmlns="http://www.w3.org/2000/svg" p-id="13877" width="128" height="128"><path d="M357.436583 0m100.651806 23.830179l465.856817 110.295601q100.651806 23.830179 76.821626 124.481985l-110.295601 465.856817q-23.830179 100.651806-124.481985 76.821626l-465.856816-110.295601q-100.651806-23.830179-76.821627-124.481984l110.295601-465.856817q23.830179-100.651806 124.481985-76.821627Z" fill="#0F62FE" p-id="13878"></path><path d="M0 192.092352m161.062049 0l509.78355 0q161.062049 0 161.062049 161.062049l0 509.78355q0 161.062049-161.062049 161.062049l-509.78355 0q-161.062049 0-161.062049-161.062049l0-509.78355q0-161.062049 161.062049-161.062049Z" fill="#C1D0FF" fill-opacity=".4" p-id="13879"></path><path d="M596.54871 489.067128c9.808531 10.380375 9.346032 26.746644-1.032866 36.555175l-214.995671 203.174603c-10.198626 9.637126-26.220606 9.382973-36.107451-0.571844l-108.606061-109.344877c-10.064162-10.132133-10.009489-26.504312 0.124121-36.568474 10.132133-10.064162 26.504312-10.009489 36.568473 0.124122l90.831608 91.44778L559.993535 488.034263c10.380375-9.808531 26.746644-9.346032 36.555175 1.032865z" fill="#FFFFFF" p-id="13880"></path></svg>