<svg t="1698931116432" class="icon" viewBox="0 0 1024 1024" version="1.1" xmlns="http://www.w3.org/2000/svg" p-id="24814" width="128" height="128"><path d="M513.75616 594.8672A139.59168 139.59168 0 0 0 373.89824 734.208v164.63872h279.72096V734.208a139.5968 139.5968 0 0 0-139.86304-139.3408z m0-165.7344A139.59168 139.59168 0 0 1 373.89824 289.792V125.16864h279.72096V289.792a139.5968 139.5968 0 0 1-139.86304 139.34592z" fill="#64F4AF" p-id="24815"></path><path d="M774.84544 284.83584v-136.192H819.2V81.92H209.92v66.74432h40.9344v136.192A260.80768 260.80768 0 0 0 384.28672 512a260.8128 260.8128 0 0 0-133.43232 227.16416v136.192H209.92V942.08h609.28v-66.74432h-44.35456v-136.192A260.80768 260.80768 0 0 0 641.408 512a260.80256 260.80256 0 0 0 133.43744-227.16416z m-67.03616 454.32832v136.192H317.88544v-136.192a194.71872 194.71872 0 0 1 183.50592-193.75616c3.80416 0.16384 7.61344 0.29184 11.45856 0.29184s7.68-0.128 11.45344-0.29184a194.71872 194.71872 0 0 1 183.50592 193.75616zM524.288 478.592c-3.79904-0.16384-7.61344-0.29184-11.45344-0.29184s-7.68 0.128-11.45856 0.29184a194.71872 194.71872 0 0 1-183.49056-193.75616v-136.192h389.92384v136.192A194.71872 194.71872 0 0 1 524.288 478.592z m-10.45504-103.01952a98.59584 98.59584 0 0 1-98.67776-98.26816H348.12416a165.72928 165.72928 0 0 0 331.45344 0h-67.03104a98.60096 98.60096 0 0 1-98.69824 98.27328z" fill="#242F44" p-id="24816"></path></svg>