<svg t="1698845630921" class="icon" viewBox="0 0 1024 1024" version="1.1" xmlns="http://www.w3.org/2000/svg" p-id="26562" width="128" height="128"><path d="M758.368 890.24l-629.44 10.048-65.76-24.992v-83.424c7.936-3.776 194.56-76.448 196.8-84.96 2.176-8.512 72.8-34.688 67.68-41.856l-19.072-82.56v-155.84c0-74.368 60.224-132.608 137.088-132.608 76.832 0 137.056 58.24 137.056 132.64l-32.224 155.808L512 647.872c-4.896 7.104 18.368 32.256 20.512 40.608 2.144 8.32 42.496 14.56 50.208 18.432l175.648 84.96v108.416-10.08z" fill="#FFCB01" p-id="26563"></path><path d="M933.504 854.112l-180 2.016v-70.816l-158.528-73.28-66.976-33.696c7.936-3.776-46.24-2.56-44.032-11.072 2.176-8.512 49.152-38.496 44.032-45.632l23.648-72.576 31.072-122.368c0-74.368 10.08-172.288 86.944-172.288 60.736 0 111.072 36.384 129.536 88.384 4.864 13.76-13.216 30.112-13.216 45.728L726.4 549.024l-15.584 48.16c-4.896 7.104 45.408 16.096 47.552 24.448 2.144 8.32 40.64 41.76 48.352 45.632l175.648 84.96-18.336 83.424-30.528 18.464z" fill="#FFCB01" p-id="26564"></path><path d="M769.504 766.208a29.76 29.76 0 0 1 16.48 26.656v104.96a29.76 29.76 0 0 1-29.824 29.792H62.72a29.792 29.792 0 0 1-29.824-29.792v-104.96c0-11.488 6.624-21.92 16.96-26.88l245.856-117.76-73.216-102.944a29.632 29.632 0 0 1-5.536-17.28v-165.312c0-107.776 86.4-192.256 196.704-192.256 110.272 0 196.672 84.448 196.672 192.256V528a29.888 29.888 0 0 1-5.248 16.896l-71.2 103.552 235.616 117.76zM726.4 868.032h-0.032v-56.736l-249.792-124.832a29.792 29.792 0 0 1-11.2-43.552l85.344-124.16v-156.064c0-74.4-60.224-132.64-137.056-132.64-76.864 0-137.088 58.24-137.088 132.608v155.84L364.8 642.56a29.76 29.76 0 0 1-11.424 44.16l-260.864 124.928v56.384H726.4z m242.464-175.328a29.76 29.76 0 0 1 16.48 26.656v104.96a29.76 29.76 0 0 1-29.824 29.792h-74.304a29.824 29.824 0 0 1 0-59.616h44.512v-56.736l-249.76-124.8a29.792 29.792 0 0 1-11.232-43.552l85.376-124.16V289.184c0-74.4-60.224-132.672-137.088-132.672-4.8 0-10.752 0.512-17.792 1.6a32 32 0 0 1-35.2-21.888l-0.416-1.216a26.816 26.816 0 0 1 20.928-34.656 194.752 194.752 0 0 1 32.48-3.424c110.304 0 196.672 84.448 196.672 192.256v165.312a29.888 29.888 0 0 1-5.248 16.896l-71.168 103.552 235.584 117.76z" fill="#1C412F" p-id="26565"></path></svg>