<svg t="1698930910136" class="icon" viewBox="0 0 1024 1024" version="1.1" xmlns="http://www.w3.org/2000/svg" p-id="15568" width="128" height="128"><path d="M960 512c0 247.424-200.576 448-448 448S64 759.424 64 512 264.576 64 512 64s448 200.576 448 448z" fill="#FFD9D9" p-id="15569"></path><path d="M294.944 903.904L735.04 123.456A448 448 0 0 1 960 512c0 247.424-200.576 448-448 448a448 448 0 0 1-217.056-56.096z" fill="#FFC2C2" p-id="15570"></path><path d="M308.352 557.248a64 64 0 0 1 0-90.496l158.4-158.4a64 64 0 0 1 90.496 0l158.4 158.4a64 64 0 0 1 0 90.496l-158.4 158.4a64 64 0 0 1-90.496 0l-158.4-158.4z" fill="#FF8686" p-id="15571"></path></svg>